<?xml version="1.0" encoding="UTF-8"?>
<svg width="88px" height="88px" viewBox="0 0 88 88" version="1.1" xmlns="http://www.w3.org/2000/svg" xmlns:xlink="http://www.w3.org/1999/xlink">
    <!-- Generator: Sketch 52.5 (67469) - http://www.bohemiancoding.com/sketch -->
    <title>2</title>
    <desc>Created with Sketch.</desc>
    <g id="Page-1" stroke="none" stroke-width="1" fill="none" fill-rule="evenodd">
        <g id="IOS-海外-定稿" transform="translate(-332.000000, -2046.000000)">
            <g id="分组-17" transform="translate(103.000000, 1667.000000)">
                <g id="2" transform="translate(231.000000, 381.000000)">
                    <circle id="Oval" cx="53.55" cy="53.55" r="30.45"></circle>
                    <path d="M23.1,53.5367086 C23.1,70.3611199 36.7329294,84 53.55,84 C70.3670706,84 84,70.3611199 84,53.5367086 C84,37.1425397 71.0554117,23.7730612 54.8337424,23.1" id="Path" stroke="#0E67FD" stroke-width="3.70384592" stroke-linecap="round" stroke-linejoin="round"></path>
                    <path d="M38.85,53.55 C38.85,70.3670706 45.4314142,84 53.55,84 C61.6685858,84 68.25,70.3670706 68.25,53.55 C68.25,39.1721664 62.9981418,26.2932229 56.5290883,23.1" id="Path" stroke="#0E67FD" stroke-width="3.70384592"></path>
                    <rect id="Rectangle" fill="#0E67FD" x="23.1" y="51.45" width="60.9" height="4.2"></rect>
                    <rect id="Rectangle-Copy-9" fill="#0E67FD" x="27.3" y="66.15" width="52.5" height="4.2"></rect>
                    <rect id="Rectangle-Copy-11" fill="#0E67FD" x="53.55" y="37.8" width="28.35" height="4.2" rx="1.85192296"></rect>
                    <path d="M4.93846123,0 L44.4115388,-1.77635684e-15 C47.1389756,-2.27737886e-15 49.35,2.21102441 49.35,4.93846123 L49.35,35.8455251 C49.35,38.5729619 47.1389756,40.7839863 44.4115388,40.7839863 L32.6404349,40.7839863 C31.9585757,40.7839863 31.4058196,41.3367424 31.4058196,42.0186016 L31.4058196,45.1001794 C31.4058196,46.2862596 30.4443116,47.2477675 29.2582315,47.2477675 C28.7906921,47.2477675 28.3359241,47.0951924 27.9629893,46.8132125 L21.3105881,41.7832623 C20.4530102,41.1348386 19.4072537,40.7839863 18.3321289,40.7839863 L4.93846123,40.7839863 C2.21102441,40.7839863 3.88672836e-15,38.5729619 3.55271368e-15,35.8455251 L0,4.93846123 C-3.34014678e-16,2.21102441 2.21102441,1.38920044e-15 4.93846123,8.8817842e-16 Z" id="Rectangle" stroke="#0E67FD" stroke-width="3.70384592" fill="#D2EEFE"></path>
                    <path d="M36.0825435,25.4848793 C35.2051089,27.889281 30.0178827,29.4657217 30.0178827,29.4657217 L31.028591,33.8469619 L28.3588299,34.5113208 L27.3424266,30.0993136 L25.2308888,30.6000703 L26.2528108,35.0358853 L23.5830497,35.7 L22.5535539,31.2334181 L17.2028765,32.5018228 L16.9904605,29.0031184 C16.9904605,29.0031184 17.9637699,28.8765099 18.8504221,28.6941057 C19.737309,28.5118847 19.7560965,27.4650753 19.6377353,26.9538187 C19.5194329,26.4425621 17.2234841,16.4751643 16.9792467,15.4164511 C16.7350093,14.3576768 15.6696999,14.0824834 15.2057663,14.1597671 C14.7418327,14.2367456 13.272416,14.7954956 13.272416,14.7954956 L12.6,11.8745874 L17.79662,10.5802383 L16.7537968,6.05309918 L19.4217379,5.38874029 L20.4642675,9.91612359 C21.2270983,9.72633293 21.9485967,9.54698105 22.5724001,9.391498 L21.529577,4.8641147 L24.1974594,4.2 L25.2476214,8.75363289 C26.4445607,8.5518773 28.7535433,8.34108696 30.1793377,8.88720059 C31.8890581,9.5422195 33.0238225,11.7300926 33.1479374,13.3981016 C33.2717587,15.0658664 31.573487,16.8784313 31.573487,16.8784313 C31.573487,16.8784313 34.2411932,17.0715795 35.3759577,18.556696 C37.6831202,21.5739341 36.4751433,24.4044338 36.0825435,25.4848793 Z M21.3117008,12.9486231 L22.5911876,18.4985196 C22.5911876,18.4985196 24.8962953,18.1942685 26.3168057,17.2618585 C27.7370813,16.3295096 28.3418624,15.4044862 28.1315599,14.1845516 C27.9079888,12.8892257 26.4425058,12.1295137 24.9978652,12.1853093 C23.7413343,12.2627762 22.5008315,12.5196559 21.3117008,12.9486231 Z M23.0890561,21.3082638 L24.4699367,27.2959791 C24.4699367,27.2959791 28.1279199,26.5779612 29.3170506,25.7796073 C30.5063575,24.9812534 31.8626969,23.4472394 31.0716848,21.7909511 C30.2809076,20.1346018 28.0751387,20.2211644 26.600262,20.4338471 C25.4127752,20.6443933 24.2396725,20.9364963 23.0890561,21.3082638 Z" id="Fill-4" fill="#0E67FD"></path>
                </g>
            </g>
        </g>
    </g>
</svg>