<?xml version="1.0" encoding="UTF-8"?>
<svg width="88px" height="89px" viewBox="0 0 88 89" version="1.1" xmlns="http://www.w3.org/2000/svg" xmlns:xlink="http://www.w3.org/1999/xlink">
    <!-- Generator: Sketch 52.5 (67469) - http://www.bohemiancoding.com/sketch -->
    <title>3</title>
    <desc>Created with Sketch.</desc>
    <g id="Page-1" stroke="none" stroke-width="1" fill="none" fill-rule="evenodd">
        <g id="IOS-海外-定稿" transform="translate(-329.000000, -2423.000000)">
            <g id="分组-17" transform="translate(103.000000, 1667.000000)">
                <g id="3" transform="translate(226.000000, 758.000000)">
                    <g id="Group-18" transform="translate(0.000000, 24.135802)">
                        <path d="M1.89259666,60.0698302 L37.1360112,60.0698302 L37.1360112,43.3827255 L56.6192266,43.3827255 C58.289303,42.7883584 59.5863936,41.4369336 60.1070536,39.7320016 C60.9879041,36.8476043 59.4331131,33.7999207 56.6195015,32.80054 L12.3405131,32.8005249 C6.57028449,32.8005207 1.89259287,37.4782123 1.89259287,43.2484369 L1.89259666,60.0698302 Z" id="Rectangle" stroke="#0E67FD" stroke-width="3.6875"></path>
                        <path d="M28.4714658,30.3371206 L16.4226301,30.8425547 L16.6473564,32.8307267 L16.6590227,33.03781 C16.6590227,35.0549572 19.3219795,37.0927212 22.4126162,37.0927212 C25.503253,37.0927212 28.1662098,35.0549572 28.1662098,33.03781 L28.1787831,32.8228539 L28.4714658,30.3371206 Z" id="Path" stroke="#0E67FD" stroke-width="3.6875" fill="#FFFFFF"></path>
                        <path d="M11.7160494,21.9277263 C9.56827536,21.9277263 7.82716049,19.9065016 7.82716049,17.4131944 C7.82716049,14.9198873 9.56827536,12.8986626 11.7160494,12.8986626 C13.8638234,12.8986626 13.0123457,14.9198873 13.0123457,17.4131944 C13.0123457,19.9065016 13.8638234,21.9277263 11.7160494,21.9277263 Z M32.4567901,21.9277263 C30.3090161,21.9277263 31.1604938,19.9065016 31.1604938,17.4131944 C31.1604938,14.9198873 30.3090161,12.8986626 32.4567901,12.8986626 C34.6045642,12.8986626 36.345679,14.9198873 36.345679,17.4131944 C36.345679,19.9065016 34.6045642,21.9277263 32.4567901,21.9277263 Z" id="Combined-Shape" fill="#0E67FD"></path>
                        <path d="M12.35128,14.7818961 C16.7293777,14.3863179 19.1700413,13.328618 19.6732709,11.6087963 C20.3075207,12.5402661 28.1822622,16.174894 31.1652509,15.4783951 C34.1482397,14.7818961 32.8556814,5.89467559 29.4092603,4.46848303 C25.9628391,3.04229047 21.618123,0.393788748 18.5692734,2.13169376 C15.5204237,3.86959877 12.35128,7.34828929 12.35128,10.31893 C12.35128,12.2993572 12.35128,13.7870126 12.35128,14.7818961 Z" id="Path-3" fill="#DBF2FF"></path>
                        <path d="M21.4373595,1.84375 C21.1907978,1.84375 20.9443355,1.85364168 20.6985669,1.87340118 C15.6235678,2.28142504 11.8402368,6.72629341 12.2482606,11.8012926 L13.0620297,21.9229489 C13.4470946,26.712385 17.446238,30.4029064 22.2511285,30.4029064 L22.5743003,30.4029064 C27.3791908,30.4029064 31.3783342,26.712385 31.7633991,21.9229489 L32.5771682,11.8012926 C32.5969277,11.555524 32.6068194,11.3090616 32.6068194,11.0625 C32.6068194,5.97112496 28.4794444,1.84375 23.3880694,1.84375 L21.4373595,1.84375 Z" id="Rectangle" stroke="#0E67FD" stroke-width="3.6875"></path>
                        <path d="M13.0123457,14.7772173 C16.1631544,14.9134129 18.3847865,13.4273172 19.6772419,10.31893 C21.1321517,13.2911215 25.2818709,14.7772173 32.1263994,14.7772173" id="Path-8" stroke="#0E67FD" stroke-width="3.6875" stroke-linecap="round" stroke-linejoin="round"></path>
                        <rect id="Rectangle" fill="#0E67FD" x="10.4197531" y="47.7250514" width="3.88888889" height="11.6087963"></rect>
                        <rect id="Rectangle-Copy" fill="#0E67FD" x="74.5555556" y="37.7777778" width="3.88888889" height="12.658179"></rect>
                        <circle id="Oval" stroke="#0E67FD" stroke-width="3.69" cx="76.654321" cy="53.5185185" r="4.19753086"></circle>
                    </g>
                    <path d="M24.0864198,19.1417509 L24.0864198,3.14814815 C24.0864198,1.40947394 25.4958937,0 27.2345679,0 L82.8518519,0 C84.5905261,0 86,1.40947394 86,3.14814815 L86,58.7654321 C86,60.5041063 84.5905261,61.9135802 82.8518519,61.9135802 L69.2433039,61.9135802" id="Path" stroke="#0E67FD" stroke-width="3.69" stroke-linecap="round"></path>
                    <path d="M68.5588445,34.6283306 C66.5056019,40.0896607 62.314133,43.8402798 55.7450654,46.0939219 C55.7216969,46.1017163 55.6966925,46.1085937 55.6708312,46.1136371 C55.6029844,46.1267805 55.5338912,46.1267805 55.4651876,46.1133314 C55.4396379,46.108288 55.4146335,46.1017163 55.3914986,46.0939219 C48.8154205,43.8444827 44.6213031,40.0959267 42.5695405,34.6343674 C40.775222,29.8581012 40.8767975,24.6176879 40.9666108,19.9945581 L40.9672339,19.9688825 C40.9854614,19.5715226 40.9976131,19.1554409 41.0043121,18.6981713 C41.0189564,17.7403047 41.7966632,16.9477244 42.7749505,16.8943101 C45.3697992,16.7522539 47.6494834,16.2602918 49.7440884,15.390532 C51.8360449,14.5218421 53.693926,13.2974387 55.4235136,11.6473252 C55.5113795,11.5745013 55.6254961,11.5741957 55.7131284,11.6473252 C57.4429496,13.2974387 59.3009086,14.5218421 61.3924757,15.390532 C63.4871585,16.2602918 65.7668428,16.7522539 68.3620031,16.8943101 C69.3402903,16.9477244 70.1179971,17.7403047 70.1323299,18.698477 C70.1392625,19.1581154 70.1514921,19.5742735 70.1697196,19.9688825 C70.2592213,24.5973614 70.358382,29.8419775 68.5588445,34.6283306 Z" id="Path" stroke="#0E67FD" stroke-width="3.69" fill="#E3F5FF"></path>
                    <polyline id="Path-4" stroke="#0E67FD" stroke-width="3.69" points="49.2716049 28.2276811 52.9888138 32.0557349 61.3373122 24.1358025"></polyline>
                </g>
            </g>
        </g>
    </g>
</svg>