<?xml version="1.0" encoding="UTF-8"?>
<svg width="137px" height="137px" viewBox="0 0 137 137" version="1.1" xmlns="http://www.w3.org/2000/svg" xmlns:xlink="http://www.w3.org/1999/xlink">
    <!-- Generator: Sketch 52.5 (67469) - http://www.bohemiancoding.com/sketch -->
    <title>logo</title>
    <desc>Created with Sketch.</desc>
    <defs>
        <linearGradient x1="25.2608475%" y1="21.6020696%" x2="95.7092725%" y2="94.5536858%" id="linearGradient-1">
            <stop stop-color="#FFFFFF" offset="0%"></stop>
            <stop stop-color="#EFEFF5" offset="100%"></stop>
        </linearGradient>
        <path d="M34.3727188,2.1640147e-15 L100.95404,4.94141266e-15 C112.906183,2.74583958e-15 117.240319,1.24446626 121.609844,3.58131374 C125.979369,5.91816123 129.408598,9.34738993 131.745445,13.7169148 C134.082293,18.0864397 135.326759,22.4205756 135.326759,34.3727188 L135.326759,100.95404 C135.326759,112.906183 134.082293,117.240319 131.745445,121.609844 C129.408598,125.979369 125.979369,129.408598 121.609844,131.745445 C117.240319,134.082293 112.906183,135.326759 100.95404,135.326759 L34.3727188,135.326759 C22.4205756,135.326759 18.0864397,134.082293 13.7169148,131.745445 C9.34738993,129.408598 5.91816123,125.979369 3.58131374,121.609844 C1.24446626,117.240319 4.09062974e-15,112.906183 2.62691436e-15,100.95404 L4.478513e-15,34.3727188 C3.01479761e-15,22.4205756 1.24446626,18.0864397 3.58131374,13.7169148 C5.91816123,9.34738993 9.34738993,5.91816123 13.7169148,3.58131374 C18.0864397,1.24446626 22.4205756,4.35958778e-15 34.3727188,2.1640147e-15 Z" id="path-2"></path>
    </defs>
    <g id="Page-1" stroke="none" stroke-width="1" fill="none" fill-rule="evenodd">
        <g id="IOS-海外-定稿" transform="translate(-306.000000, -353.000000)">
            <g id="Group-4" transform="translate(0.000000, 186.000000)">
                <g id="logo" transform="translate(307.000000, 168.000000)">
                    <mask id="mask-3" fill="white">
                        <use xlink:href="#path-2"></use>
                    </mask>
                    <use id="Mask-Copy" stroke="#D7D7D7" stroke-width="0.78861746" fill="url(#linearGradient-1)" xlink:href="#path-2"></use>
                    <g id="Group" mask="url(#mask-3)">
                        <g transform="translate(37.277510, 19.484547)">
                            <path d="M41.9115442,29.6676488 C41.9115442,15.8265059 35.0669493,3.92481309 29.8598883,0.0479994117 C29.8387041,0.0365233756 29.4616265,-0.172131828 29.4934027,0.380804461 C29.4934027,0.388107393 29.4870474,0.391237221 29.4870474,0.397496877 C29.0527726,27.1220553 15.1930506,34.3644774 7.57311624,44.1211947 C-10.0118364,66.6361344 6.34231784,91.3221315 22.9962277,95.8843775 C32.3140706,98.4372739 20.8439193,91.3680356 19.3663257,76.435626 C17.5805029,58.3859077 41.9115442,44.6084046 41.9115442,29.6676488" id="Fill-13" fill="#1D2243"></path>
                            <path d="M49.116323,38.8334366 C49.0117583,38.7625778 48.8637113,38.7136019 48.7612171,38.8834546 C48.4816878,42.2440381 45.0714293,49.4309977 40.7490768,56.0312879 C26.090349,78.4174634 34.4441363,89.2078021 39.1423005,95.0046784 C41.8692649,98.3694301 39.1423005,95.0046784 45.9586763,91.5659418 C46.492888,91.2960531 59.2601337,84.0892947 60.6432865,67.6688063 C61.9819216,51.7682965 52.493452,41.7449003 49.116323,38.8334366" id="Fill-15" fill="#2EA7DF"></path>
                        </g>
                    </g>
                </g>
            </g>
        </g>
    </g>
</svg>