<?xml version="1.0" encoding="UTF-8"?>
<svg width="83px" height="88px" viewBox="0 0 83 88" version="1.1" xmlns="http://www.w3.org/2000/svg" xmlns:xlink="http://www.w3.org/1999/xlink">
    <!-- Generator: Sketch 52.5 (67469) - http://www.bohemiancoding.com/sketch -->
    <title>1</title>
    <desc>Created with Sketch.</desc>
    <g id="Page-1" stroke="none" stroke-width="1" fill="none" fill-rule="evenodd">
        <g id="IOS-海外-定稿" transform="translate(-327.000000, -1665.000000)">
            <g id="分组-17" transform="translate(103.000000, 1667.000000)">
                <g id="1" transform="translate(225.000000, 0.000000)">
                    <path d="M18.3606557,78.5655738 C15.4634243,78.5655738 13.1147541,76.2205734 13.1147541,73.3278689 L13.1147541,9.97434108 C11.664502,8.64314267 10.2760191,7.39001915 8.9493054,6.21497054 C7.96121991,5.33983939 7.09080483,7.46801296 6.33806017,12.5994913 C8.9493054,12.9737664 8.16518309,22.8591341 6.33806017,21.3843855 C4.18466107,19.6462855 0.347794825,12.9737664 0.347794825,10.0802567 C0.347794825,4.54747351e-12 10.5848328,4.54747351e-12 12.0163038,4.54747351e-12 L74.7540984,1.16929708e-11 C77.6513298,1.16929708e-11 80,2.34500037 80,5.23770492 L80,76.3120526 C80,77.556638 78.9910642,78.5655738 77.7464789,78.5655738 L18.3606557,78.5655738 Z" id="Path"></path>
                    <path d="M7.888154,21.0280635 C3.52791455,19.0781295 1.34779483,15.4288606 1.34779483,10.0802567 C1.34779483,4.54747351e-12 11.5848328,4.54747351e-12 13.0163038,4.54747351e-12 L74.7540984,1.16929708e-11 C77.6513298,1.16929708e-11 80,2.34500037 80,5.23770492 L80,73.3278689 M47.3073363,78.5655738 C40.8747406,78.5655738 32.2258471,78.5655738 19.3606557,78.5655738 C16.4634243,78.5655738 14.1147541,76.2205734 14.1147541,73.3278689 C14.1147541,52.2250879 14.1147541,31.5479539 14.1147541,11.296467 C14.1147541,7.6572876 11.6587261,5.49984591 9.60420936,6.43161861 C7.34910321,7.45436343 6.77708475,9.42454125 7.888154,12.3421521" id="Shape-Copy" stroke="#0E67FD" stroke-width="3.93442623" stroke-linecap="round"></path>
                    <path d="M25.2592213,24.8790984 L46.2489754,24.8790984 C47.3337396,24.8790984 48.2131148,25.7584735 48.2131148,26.8432377 C48.2131148,27.9280019 47.3337396,28.807377 46.2489754,28.807377 L25.2592213,28.807377 C24.1744571,28.807377 23.295082,27.9280019 23.295082,26.8432377 C23.295082,25.7584735 24.1744571,24.8790984 25.2592213,24.8790984 Z M25.2592213,43.2110656 L42.3145492,43.2110656 C43.3993134,43.2110656 44.2786885,44.0904407 44.2786885,45.1752049 C44.2786885,46.2599691 43.3993134,47.1393443 42.3145492,47.1393443 L25.2592213,47.1393443 C24.1744571,47.1393443 23.295082,46.2599691 23.295082,45.1752049 C23.295082,44.0904407 24.1744571,43.2110656 25.2592213,43.2110656 Z M25.2592213,34.045082 L34.4456967,34.045082 C35.5304609,34.045082 36.4098361,34.9244571 36.4098361,36.0092213 C36.4098361,37.0939855 35.5304609,37.9733607 34.4456967,37.9733607 L25.2592213,37.9733607 C24.1744571,37.9733607 23.295082,37.0939855 23.295082,36.0092213 C23.295082,34.9244571 24.1744571,34.045082 25.2592213,34.045082 Z M40.9969262,34.045082 L55.4293033,34.045082 C56.5140675,34.045082 57.3934426,34.9244571 57.3934426,36.0092213 C57.3934426,37.0939855 56.5140675,37.9733607 55.4293033,37.9733607 L40.9969262,37.9733607 C39.912162,37.9733607 39.0327869,37.0939855 39.0327869,36.0092213 C39.0327869,34.9244571 39.912162,34.045082 40.9969262,34.045082 Z M61.9805328,34.045082 L69.8555328,34.045082 C70.940297,34.045082 71.8196721,34.9244571 71.8196721,36.0092213 C71.8196721,37.0939855 70.940297,37.9733607 69.8555328,37.9733607 L61.9805328,37.9733607 C60.8957686,37.9733607 60.0163934,37.0939855 60.0163934,36.0092213 C60.0163934,34.9244571 60.8957686,34.045082 61.9805328,34.045082 Z M37.0625,15.7131148 L48.8719262,15.7131148 C49.9566904,15.7131148 50.8360656,16.5924899 50.8360656,17.6772541 C50.8360656,18.7620183 49.9566904,19.6413934 48.8719262,19.6413934 L37.0625,19.6413934 C35.9777358,19.6413934 35.0983607,18.7620183 35.0983607,17.6772541 C35.0983607,16.5924899 35.9777358,15.7131148 37.0625,15.7131148 Z M52.8002049,24.8790984 L65.9211066,24.8790984 C67.0058708,24.8790984 67.8852459,25.7584735 67.8852459,26.8432377 C67.8852459,27.9280019 67.0058708,28.807377 65.9211066,28.807377 L52.8002049,28.807377 C51.7154407,28.807377 50.8360656,27.9280019 50.8360656,26.8432377 C50.8360656,25.7584735 51.7154407,24.8790984 52.8002049,24.8790984 Z M48.8657787,43.2110656 L61.9866803,43.2110656 C63.0714445,43.2110656 63.9508197,44.0904407 63.9508197,45.1752049 C63.9508197,46.2599691 63.0714445,47.1393443 61.9866803,47.1393443 L48.8657787,47.1393443 C47.7810145,47.1393443 46.9016393,46.2599691 46.9016393,45.1752049 C46.9016393,44.0904407 47.7810145,43.2110656 48.8657787,43.2110656 Z M55.4231557,15.7131148 L58.0522541,15.7131148 C59.1370183,15.7131148 60.0163934,16.5924899 60.0163934,17.6772541 C60.0163934,18.7620183 59.1370183,19.6413934 58.0522541,19.6413934 L55.4231557,19.6413934 C54.3383915,19.6413934 53.4590164,18.7620183 53.4590164,17.6772541 C53.4590164,16.5924899 54.3383915,15.7131148 55.4231557,15.7131148 Z M25.2592213,15.7131148 L30.5112705,15.7131148 C31.5960347,15.7131148 32.4754098,16.5924899 32.4754098,17.6772541 C32.4754098,18.7620183 31.5960347,19.6413934 30.5112705,19.6413934 L25.2592213,19.6413934 C24.1744571,19.6413934 23.295082,18.7620183 23.295082,17.6772541 C23.295082,16.5924899 24.1744571,15.7131148 25.2592213,15.7131148 Z" id="Combined-Shape" fill="#0E67FD"></path>
                    <path d="M26.1485521,65.3884549 C23.9781462,58.6758646 24.9271794,55.3195695 28.9956519,55.3195695 C33.0641244,55.3195695 33.8744572,59.3394035 31.4266502,67.3790715 L35.0983607,63.8073728 L35.9191079,67.3790715 C38.3702834,64.4197727 39.8769407,63.2292064 40.43908,63.8073728 C41.0012192,64.3855392 41.0012192,65.5761054 40.43908,67.3790715 L45.5575949,67.3790715" id="Path-8" stroke="#0E67FD" stroke-width="3.93442623" stroke-linecap="round" stroke-linejoin="round"></path>
                    <polyline id="Path" stroke="#0E67FD" stroke-width="3.93442623" stroke-linecap="round" points="69.8688525 74 69.8688525 82.8565574 65.4344262 81.1781464 61 82.8565574 61 74"></polyline>
                    <ellipse id="Oval" stroke="#0E67FD" stroke-width="3.93442623" fill="#D2EEFE" cx="65.2622951" cy="67.5963115" rx="8.21311475" ry="8.19877049"></ellipse>
                </g>
            </g>
        </g>
    </g>
</svg>